<svg width="80" height="80" viewBox="0 0 80 80" fill="none" xmlns="http://www.w3.org/2000/svg">
<g id="5ff7553028794d0649e7cf54_oto copy">
<ellipse id="Oval" cx="40" cy="40.0622" rx="39.6875" ry="39.5331" fill="#969696"/>
<g id="Group-Copy">
<path id="Path" d="M39.9686 1.77432C18.9176 1.77432 1.78821 18.7704 1.78821 39.6576C1.78821 42.8949 2.19605 45.9767 3.04311 49.0895C5.23919 57.4008 10.1019 64.5603 16.7529 69.6342L18.7294 67.2996L15.6862 59.9533C15.6862 59.9533 15.6862 59.9533 15.6862 59.9222C14.3059 60.2957 12.8313 59.6109 12.298 58.2724C12.1411 57.93 12.0784 57.5564 12.0784 57.214C12.0784 56.2179 12.6117 55.284 13.5215 54.7549L5.58429 36.5448C5.49017 36.3269 5.49017 36.0778 5.58429 35.8599C5.6784 35.642 5.86664 35.4553 6.08625 35.3619L10.7608 33.463C10.9804 33.3697 11.2313 33.3697 11.451 33.463C11.6706 33.5564 11.8588 33.7432 11.9215 33.9611L19.1372 52.4825C20.4862 52.1401 21.9608 52.8249 22.4941 54.1323C22.651 54.4747 22.7137 54.8483 22.7137 55.1907C22.7137 56.1868 22.149 57.1518 21.2392 57.6498C21.2392 57.6498 21.2392 57.6498 21.2392 57.6809L23.498 63.1595C24.5333 62.537 25.6 61.9767 26.7294 61.5409L30.5568 60.0467C31.8745 59.5486 32.6902 58.3035 32.6902 56.9339V55.8132C24.9098 53.3541 18.8549 47.0662 16.7529 39.1907C16.2196 37.2296 15.9686 35.1751 15.9686 33.1206C15.9686 29.7276 16.7215 26.3658 18.1019 23.3152C17.3176 23.6265 16.4078 23.8444 15.4666 23.8444C13.8666 23.8444 12.1411 23.2218 10.6039 21.4163C10.2902 21.0428 10.3529 20.4825 10.7294 20.1712C12.4549 18.7393 14.1804 18.3969 15.6862 18.6148C15.1215 17.214 14.9961 15.5019 15.9372 13.5097C16.1568 13.0739 16.6902 12.856 17.1294 13.0739C19.9843 14.3813 20.8941 16.5914 20.9568 18.5837C21.7411 17.5564 22.6196 16.5914 23.5921 15.6887L23.6235 15.6576C24.7529 14.6304 25.9764 13.6965 27.2313 12.9183C27.2313 12.9183 27.2627 12.9183 27.2627 12.8872C31.0588 10.5525 35.451 9.3074 39.9372 9.3074C44.4235 9.3074 48.8157 10.5525 52.6117 12.8872C52.6117 12.8872 52.6431 12.8872 52.6431 12.9183C53.9294 13.6965 55.1529 14.6304 56.251 15.6576L56.2823 15.6887C61.1451 20.1712 63.9059 26.5214 63.9059 33.0895C63.9059 35.144 63.6549 37.1984 63.1215 39.1595C61.051 47.0039 54.9647 53.2918 47.2157 55.751V56.8716C47.2157 58.2724 48.0627 59.4864 49.349 59.9844L53.1764 61.4786C54.2745 61.9144 55.3411 62.4125 56.3137 63.035L58.5411 57.6187C58.5411 57.6187 58.5411 57.6187 58.5411 57.5876C57.6313 57.0895 57.0666 56.1245 57.0666 55.1284C57.0666 54.7549 57.1294 54.4125 57.2862 54.07C57.8196 52.7315 59.2941 52.0467 60.6431 52.4202L67.8588 33.8988C67.9529 33.6809 68.1098 33.4942 68.3294 33.4008C68.549 33.3074 68.8 33.3074 69.0196 33.4008L73.6941 35.2996C73.9137 35.393 74.1019 35.5798 74.1961 35.7977C74.2902 36.0156 74.2902 36.2646 74.1961 36.4825L66.2588 54.6926C67.1686 55.1907 67.7019 56.1556 67.7019 57.1518C67.7019 57.4942 67.6392 57.8677 67.4823 58.2101C66.9176 59.5486 65.4431 60.2335 64.0941 59.8599C64.0941 59.8599 64.0941 59.8599 64.0941 59.8911L61.1137 67.144L63.2157 69.6031C72.251 62.6615 78.0864 51.7977 78.0864 39.6265C78.149 18.7704 61.0196 1.77432 39.9686 1.77432Z" fill="url(#paint0_linear_0_10)"/>
<path id="Shape" fill-rule="evenodd" clip-rule="evenodd" d="M0 39.8444C0 17.8893 17.9278 0 40 0C62.0408 0 80 17.8893 80 39.8444C80 61.7994 62.0408 79.6887 40 79.6887C36.0754 79.6887 31.7739 78.9694 27.2527 77.5307C14.4427 73.2148 4.74097 62.8315 1.28728 49.7585C0.43956 46.5059 0 43.2533 0 39.8444ZM10.5412 35.4553L7.56078 36.6693L8.78431 39.4708L10.7294 35.9533L10.5412 35.4553ZM11.5765 38.1323L13.2078 42.2724L11.4196 45.5097L9.69412 41.5564L11.5765 38.1323ZM15.6549 48.5603L14.0549 44.4514L12.3608 47.5642L14.0549 51.4864L15.6549 48.5603ZM15.1529 54.07L14.9333 53.572L16.4706 50.7393L17.4118 53.1362L15.1529 54.07ZM21.9608 64.249L19.5451 58.3969L17.349 59.2996L20.0471 65.8677C20.6431 65.3074 21.302 64.7471 21.9608 64.249ZM33.851 54.3502C26.8863 52.358 21.302 47.0661 18.9804 40.2802C25.8824 42.0233 32.9412 42.8949 40 42.8949C47.0588 42.8949 54.1176 42.0233 61.0196 40.2802C58.698 47.035 53.1137 52.3268 46.149 54.3191C45.7725 54.4436 45.4902 54.786 45.4902 55.1907V56.965C45.4902 59.0817 46.7765 60.9805 48.7843 61.7276L50.1961 62.2568L40 66.9572L29.8039 62.2879L31.2157 61.7276C33.2235 60.9494 34.5098 59.0817 34.5098 56.965V55.1907C34.4784 54.786 34.2275 54.4436 33.851 54.3502ZM16.4392 22.0078C16.9725 21.9144 17.4745 21.6965 17.8824 21.5097C17.5373 21.2296 17.098 20.9494 16.5647 20.7626C15.2157 20.2023 13.9294 20.2957 12.6745 21.0428C13.7725 21.9767 15.0275 22.3191 16.4392 22.0078ZM17.2235 15.2218C18.4157 16.0311 19.0745 17.1518 19.1373 18.5837C19.1686 19.144 19.1059 19.6732 19.0118 20.1089C18.6667 19.8288 18.2588 19.4864 17.9137 19.0195C17.0667 17.8677 16.8471 16.5914 17.2235 15.2218ZM34.102 18.8016L27.7647 14.7549C27.0745 15.2218 26.3843 15.7198 25.7255 16.249L32.6902 20.7004C37.1137 23.5331 42.8549 23.5331 47.2784 20.7004L54.2118 16.249C53.5529 15.7198 52.8627 15.2218 52.1726 14.7549L45.8353 18.8016C44.0471 19.9533 42.0078 20.5136 39.9686 20.5136C37.9294 20.5136 35.8902 19.9533 34.102 18.8016ZM47.1529 34.2412L49.6941 33.7743V35.144C49.6941 35.642 50.102 36.0467 50.6039 36.0467C51.1059 36.0467 51.5137 35.642 51.5137 35.144V33.463L53.7412 33.0584H53.898C54.2118 33.0584 54.4 33.2451 54.4627 33.3074C54.5569 33.4008 54.7451 33.6809 54.6196 34.0856C54.1176 35.7043 52.8 36.9183 51.1059 37.2296C49.4431 37.5409 47.749 36.8872 46.6824 35.5798C46.4369 35.2753 46.5215 34.9411 46.5547 34.8101L46.5569 34.8016C46.6196 34.6148 46.7765 34.3035 47.1529 34.2412ZM30.2745 35.1128C30.2745 35.6109 29.8667 36.0156 29.3647 36.0156C28.8627 36.0156 28.4549 35.6109 28.4549 35.0506V33.3697L26.2275 32.965H26.0706C25.7882 32.965 25.5686 33.1206 25.5059 33.214C25.4961 33.2335 25.4824 33.256 25.4669 33.2816C25.3829 33.4202 25.2431 33.6508 25.349 33.9922C25.851 35.6109 27.2 36.8249 28.8627 37.1362C30.5569 37.4475 32.251 36.8249 33.2863 35.4864C33.5373 35.1751 33.4745 34.8327 33.4118 34.7082C33.349 34.5837 33.1922 34.2724 32.8157 34.2101L30.2745 33.7432V35.1128ZM71.0588 39.4708L69.1137 35.9533L69.302 35.4553L72.2823 36.6693L71.0588 39.4708ZM68.4235 45.5097L70.149 41.5564L68.2667 38.1323L66.6353 42.2724L68.4235 45.5097ZM65.7882 44.4514L67.5137 47.5642L65.8196 51.4864L64.2196 48.5603L65.7882 44.4514ZM64.8784 53.572L63.3412 50.7393L62.4 53.1362L64.6588 54.07L64.8784 53.572ZM60.298 58.3969L62.4941 59.2996L59.8275 65.7743C59.2314 65.1829 58.5726 64.6537 57.9137 64.1556L60.298 58.3969ZM38.5569 74.5837C38.0549 74.5837 37.6471 74.9883 37.6471 75.4864C37.6471 75.9844 38.0235 76.3891 38.5569 76.3891H41.4431C41.9451 76.3891 42.3529 75.9844 42.3529 75.4864C42.3529 74.9883 41.9451 74.5837 41.4431 74.5837H38.5569ZM42.3216 71.9689C42.3216 72.4669 41.9137 72.8716 41.4118 72.8716H38.5255C38.0235 72.8716 37.6157 72.4669 37.6157 71.9689C37.6157 71.4708 38.0235 71.0661 38.5255 71.0661H41.4118C41.9137 71.0661 42.3216 71.4708 42.3216 71.9689ZM61.1451 67.2062L63.2471 69.6654C72.3137 62.7237 78.149 51.8599 78.149 39.6576C78.149 18.7704 61.0196 1.77432 39.9686 1.77432C18.9176 1.77432 1.78824 18.7704 1.78824 39.6576C1.78824 42.8949 2.19608 45.9767 3.04314 49.1518C5.23922 57.463 10.1333 64.6226 16.7529 69.6965L18.7294 67.3619L15.7176 60.0156V59.9844C14.3686 60.358 12.8941 59.6731 12.3294 58.3346C12.1725 57.9922 12.1098 57.6498 12.1098 57.2763C12.1098 56.2802 12.6431 55.3152 13.5529 54.8171L5.61569 36.607C5.52157 36.3891 5.52157 36.1401 5.61569 35.9222C5.7098 35.7043 5.89804 35.5175 6.11765 35.4241L10.7922 33.5253C11.0118 33.4319 11.2627 33.4319 11.4824 33.5253C11.702 33.6187 11.8588 33.8054 11.9529 34.0233L19.1686 52.5447C20.5176 52.1712 21.9922 52.856 22.5255 54.1946C22.6824 54.537 22.7451 54.9105 22.7451 55.2529C22.7451 56.249 22.1804 57.214 21.2706 57.7121V57.7432L23.5294 63.2218C24.5333 62.5681 25.6314 62.0389 26.7608 61.6031L30.5882 60.1089C31.8745 59.6109 32.7216 58.3969 32.7216 56.9961V55.8755C24.9412 53.4163 18.8549 47.0973 16.7843 39.2529C16.251 37.2918 16 35.2374 16 33.1829C16 29.7588 16.7529 26.428 18.1333 23.3774C17.349 23.6887 16.4392 23.9066 15.498 23.9066C13.898 23.9066 12.1412 23.284 10.6353 21.4786C10.3216 21.1051 10.3843 20.5447 10.7608 20.2335C12.4863 18.8016 14.2118 18.4591 15.7176 18.677C15.1216 17.2763 15.0275 15.5642 15.9686 13.572C16.1882 13.1362 16.7216 12.9183 17.1608 13.1362C20.0157 14.4436 20.9255 16.6537 20.9882 18.6459C21.7726 17.6187 22.651 16.6537 23.6235 15.751L23.6549 15.7198C24.7529 14.6926 25.9765 13.7588 27.2627 12.9805C27.2627 12.9494 27.2941 12.9494 27.2941 12.9494C31.0902 10.6148 35.4824 9.36965 39.9686 9.36965C44.4549 9.36965 48.8471 10.5837 52.6431 12.9494C52.6431 12.9805 52.6745 12.9805 52.6745 12.9805C53.9294 13.7588 55.1529 14.6926 56.2824 15.7198L56.3137 15.751C61.1451 20.2335 63.9373 26.5837 63.9373 33.1518C63.9373 35.2062 63.6863 37.2607 63.1529 39.2218C61.0824 47.0661 54.9961 53.3541 47.2471 55.8132V56.9339C47.2471 58.3035 48.0627 59.5486 49.3804 60.0467L53.2078 61.5409C54.3059 61.9767 55.3412 62.4747 56.3451 63.0973L58.5725 57.6809V57.6498C57.6627 57.1517 57.098 56.1868 57.098 55.1907C57.098 54.8483 57.1608 54.4747 57.3176 54.1323C57.851 52.8249 59.2941 52.1401 60.6745 52.4825L67.8902 33.9611C67.9529 33.7432 68.1412 33.5564 68.3608 33.463C68.5804 33.3697 68.8314 33.3697 69.051 33.463L73.7255 35.3619C73.9451 35.4552 74.1333 35.642 74.2275 35.8599C74.3216 36.0778 74.3216 36.3268 74.2275 36.5447L66.2902 54.7549C67.2 55.284 67.7333 56.2179 67.7333 57.214C67.7333 57.5564 67.6706 57.93 67.5137 58.2724C66.9804 59.6109 65.5059 60.2957 64.1255 59.9222V59.9533L61.1451 67.2062Z" fill="black"/>
<path id="Path_2" d="M36.3608 46.9416H43.8275C44.3294 46.9416 44.7373 46.537 44.7373 46.0389C44.7373 45.5409 44.3294 45.1362 43.8275 45.1362H36.3608C35.8588 45.1362 35.451 45.5409 35.451 46.0389C35.451 46.537 35.8588 46.9416 36.3608 46.9416Z" fill="black"/>
<path id="Path_3" d="M38.5255 71.0662C38.0235 71.0662 37.6157 71.4708 37.6157 71.9689C37.6157 72.4669 38.0235 72.8716 38.5255 72.8716H41.4117C41.9137 72.8716 42.3215 72.4669 42.3215 71.9689C42.3215 71.4708 41.9137 71.0662 41.4117 71.0662H38.5255Z" fill="#1D1E1F"/>
<path id="Path_4" d="M42.3215 75.4864C42.3215 74.9883 41.9137 74.5836 41.4117 74.5836H38.5255C38.0235 74.5836 37.6157 74.9883 37.6157 75.4864C37.6157 75.9844 38.0235 76.3891 38.5255 76.3891H41.4117C41.9137 76.3891 42.3215 75.9844 42.3215 75.4864Z" fill="#1D1E1F"/>
</g>
</g>
<defs>
<linearGradient id="paint0_linear_0_10" x1="-0.407793" y1="1.77432" x2="-0.407793" y2="73.5405" gradientUnits="userSpaceOnUse">
<stop stop-color="white"/>
<stop offset="0.408813" stop-color="#F2F2F2"/>
<stop offset="0.786835" stop-color="#A0A0A0"/>
<stop offset="1"/>
</linearGradient>
</defs>
</svg>
